<?xml version="1.0" encoding="utf-8"?>
<!-- Generator: Adobe Illustrator 23.0.1, SVG Export Plug-In . SVG Version: 6.00 Build 0)  -->
<svg version="1.1" id="Layer_1" xmlns="http://www.w3.org/2000/svg" xmlns:xlink="http://www.w3.org/1999/xlink" x="0px" y="0px"
	 viewBox="0 0 512 512" style="enable-background:new 0 0 512 512;" xml:space="preserve">
<style type="text/css">
	.st0{fill:#82C341;}
	.st1{opacity:0.1;enable-background:new    ;}
	.st2{opacity:0.2;fill:#FFFFFF;enable-background:new    ;}
	.st3{fill:#FFFFFF;}
	.st4{fill:url(#SVGID_1_);}
</style>
<g>
	<path class="st0" d="M297.7,306c-13.8,0-25,11.2-25,25v100c0,13.8,11.2,25,25,25c13.8,0,25-11.2,25-25V331
		C322.7,317.2,311.5,306,297.7,306z"/>
	<path class="st1" d="M297.7,451.8c-13.8,0-25-11.2-25-25v4.2c0,13.8,11.2,25,25,25c13.8,0,25-11.2,25-25v-4.2
		C322.7,440.6,311.5,451.8,297.7,451.8z"/>
	<path class="st0" d="M214.3,306c-13.8,0-25,11.2-25,25v100c0,13.8,11.2,25,25,25c13.8,0,25-11.2,25-25V331
		C239.3,317.2,228.1,306,214.3,306z"/>
	<path class="st1" d="M214.3,451.8c-13.8,0-25-11.2-25-25v4.2c0,13.8,11.2,25,25,25c13.8,0,25-11.2,25-25v-4.2
		C239.3,440.6,228.1,451.8,214.3,451.8z"/>
	<path class="st0" d="M356,189.3H156v150c0,18.4,14.9,33.3,33.3,33.3h133.3c18.4,0,33.3-14.9,33.3-33.3V189.3z"/>
	<path class="st0" d="M397.7,189.3c-13.8,0-25,11.2-25,25v100c0,13.8,11.2,25,25,25s25-11.2,25-25v-100
		C422.7,200.5,411.5,189.3,397.7,189.3z"/>
	<path class="st0" d="M208.1,102.8c-2.8,0-5.5-1.4-7.1-3.9l-18.8-30.2c-2.4-3.9-1.2-9,2.7-11.5c3.9-2.4,9-1.2,11.5,2.7l18.8,30.2
		c2.4,3.9,1.2,9-2.7,11.5C211.1,102.4,209.6,102.8,208.1,102.8z"/>
	<path class="st0" d="M303.9,102.8c-1.5,0-3-0.4-4.4-1.3c-3.9-2.4-5.1-7.6-2.7-11.5l18.8-30.2c2.4-3.9,7.6-5.1,11.5-2.7
		c3.9,2.4,5.1,7.6,2.7,11.5L311,98.9C309.4,101.5,306.7,102.8,303.9,102.8z"/>
	<path class="st0" d="M256,72.7c-55.2,0-100,44.8-100,100h200C356,117.4,311.2,72.7,256,72.7z"/>
	<rect x="156" y="189.3" class="st2" width="200" height="4.2"/>
	<path class="st1" d="M322.7,368.5H189.3c-18.4,0-33.3-14.9-33.3-33.3v4.2c0,18.4,14.9,33.3,33.3,33.3h133.3
		c18.4,0,33.3-14.9,33.3-33.3v-4.2C356,353.6,341.1,368.5,322.7,368.5z"/>
	<path class="st2" d="M397.7,189.3c-13.8,0-25,11.2-25,25v4.2c0-13.8,11.2-25,25-25s25,11.2,25,25v-4.2
		C422.7,200.5,411.5,189.3,397.7,189.3z"/>
	<path class="st1" d="M397.7,335.2c-13.8,0-25-11.2-25-25v4.2c0,13.8,11.2,25,25,25s25-11.2,25-25v-4.2
		C422.7,324,411.5,335.2,397.7,335.2z"/>
	<path class="st2" d="M256,76.8c41.9,0,77.8,24.3,93.3,59.9C335.1,99,298.8,72.7,256,72.7s-79.1,26.4-93.4,64.1
		C178.2,101.2,214.1,76.8,256,76.8z"/>
	<circle class="st3" cx="214.3" cy="131" r="8.3"/>
	<circle class="st3" cx="297.7" cy="131" r="8.3"/>
	<path class="st1" d="M156.2,168.5c-0.1,1.4-0.2,2.8-0.2,4.2h200c0-1.4-0.2-2.8-0.2-4.2H156.2z"/>
	<path class="st0" d="M114.3,189.3c-13.8,0-25,11.2-25,25v100c0,13.8,11.2,25,25,25s25-11.2,25-25v-100
		C139.3,200.5,128.1,189.3,114.3,189.3z"/>
	<path class="st2" d="M114.3,189.3c-13.8,0-25,11.2-25,25v4.2c0-13.8,11.2-25,25-25s25,11.2,25,25v-4.2
		C139.3,200.5,128.1,189.3,114.3,189.3z"/>
	<path class="st1" d="M114.3,335.2c-13.8,0-25-11.2-25-25v4.2c0,13.8,11.2,25,25,25s25-11.2,25-25v-4.2
		C139.3,324,128.1,335.2,114.3,335.2z"/>
	
		<linearGradient id="SVGID_1_" gradientUnits="userSpaceOnUse" x1="102.9229" y1="-91.7603" x2="419.2671" y2="-239.274" gradientTransform="matrix(1 0 0 -1 0 87.8898)">
		<stop  offset="0" style="stop-color:#FFFFFF;stop-opacity:0.2"/>
		<stop  offset="1" style="stop-color:#FFFFFF;stop-opacity:0"/>
	</linearGradient>
	<path class="st4" d="M156,339.3c0,18.4,14.9,33.3,33.3,33.3V431c0,13.8,11.2,25,25,25c13.8,0,25-11.2,25-25v-58.3h33.3V431
		c0,13.8,11.2,25,25,25c13.8,0,25-11.2,25-25v-58.3c18.4,0,33.3-14.9,33.3-33.3v-150H156V339.3z M397.7,189.3c-13.8,0-25,11.2-25,25
		v100c0,13.8,11.2,25,25,25s25-11.2,25-25v-100C422.7,200.5,411.5,189.3,397.7,189.3z M315.2,92.2l14.6-23.4c2.4-3.9,1.2-9-2.7-11.5
		c-3.9-2.4-9-1.2-11.5,2.7L301,83.4c-13.5-6.8-28.8-10.8-45-10.8s-31.4,3.9-45,10.8l-14.6-23.5c-2.4-3.9-7.6-5.1-11.5-2.7
		c-3.9,2.4-5.1,7.6-2.7,11.5l14.6,23.4c-24.7,18.2-40.8,47.4-40.8,80.5h200C356,139.6,339.9,110.4,315.2,92.2z M114.3,189.3
		c-13.8,0-25,11.2-25,25v100c0,13.8,11.2,25,25,25s25-11.2,25-25v-100C139.3,200.5,128.1,189.3,114.3,189.3z"/>
</g>
</svg>
