<?xml version="1.0" encoding="UTF-8"?>
<svg xmlns="http://www.w3.org/2000/svg" xmlns:xlink="http://www.w3.org/1999/xlink" width="264.49pt" height="365pt" viewBox="0 0 264.49 365" version="1.1">
<defs>
<clipPath id="clip1">
  <path d="M 0 0 L 264.488281 0 L 264.488281 365 L 0 365 Z M 0 0 "/>
</clipPath>
</defs>
<g id="surface1">
<g clip-path="url(#clip1)" clip-rule="nonzero">
<path style=" stroke:none;fill-rule:nonzero;fill:rgb(27.49939%,78.399658%,96.099854%);fill-opacity:1;" d="M 220.132813 182.894531 C 232.292969 182.894531 242.742188 178.40625 251.4375 169.449219 C 260.140625 160.484375 264.484375 149.71875 264.484375 137.175781 C 264.484375 124.625 260.140625 113.867188 251.40625 104.90625 C 242.679688 95.9375 232.210938 91.449219 220.011719 91.449219 L 88.625 91.449219 L 88.625 45.726563 C 88.625 33.164063 84.296875 22.414063 75.65625 13.464844 C 67.042969 4.476563 56.652344 0 44.574219 0 C 32.128906 0 21.582031 4.402344 12.949219 13.191406 C 4.320313 21.992188 0 32.851563 0 45.761719 L 0 228.265625 C 0 265.949219 12.949219 298.160156 38.878906 324.890625 C 64.785156 351.640625 95.988281 365 132.492188 365 L 220.144531 365 C 232.320313 365 242.738281 360.523438 251.433594 351.5625 C 260.136719 342.613281 264.480469 331.832031 264.480469 319.285156 C 264.480469 306.734375 260.136719 295.984375 251.433594 287.019531 C 242.738281 278.046875 232.285156 273.550781 220.128906 273.550781 L 132.453125 273.550781 C 120.277344 273.550781 109.921875 269.148438 101.390625 260.351563 C 92.863281 251.519531 88.609375 240.816406 88.609375 228.222656 L 88.609375 182.890625 L 220.132813 182.890625 L 220.132813 182.894531 "/>
</g>
</g>
</svg>
